<?xml version="1.0" encoding="UTF-8"?>
<!DOCTYPE svg PUBLIC "-//W3C//DTD SVG 1.1//EN" "http://www.w3.org/Graphics/SVG/1.1/DTD/svg11.dtd">
<!-- Creator: CorelDRAW -->
<svg xmlns="http://www.w3.org/2000/svg" xml:space="preserve" width="69.9346mm" height="63.0189mm" version="1.1" style="shape-rendering:geometricPrecision; text-rendering:geometricPrecision; image-rendering:optimizeQuality; fill-rule:evenodd; clip-rule:evenodd"
viewBox="0 0 3036.42 2736.16"
 xmlns:xlink="http://www.w3.org/1999/xlink"
 xmlns:xodm="http://www.corel.com/coreldraw/odm/2003">
 <defs>
  <style type="text/css">
   <![CDATA[
    .fil0 {fill:black}
    .fil1 {fill:black;fill-rule:nonzero}
   ]]>
  </style>
 </defs>
 <g id="Camada_x0020_1">
  <metadata id="CorelCorpID_0Corel-Layer"/>
  <g id="_2568841205280">
   <polygon class="fil0" points="419.64,970 1440.8,1334.27 1440.8,1562.15 419.64,1197.88 "/>
   <polygon class="fil0" points="419.64,1457.62 1661.56,1900.64 1661.56,2128.52 419.64,1685.5 "/>
   <polygon class="fil0" points="2336.5,1605.63 2134,1775.62 2099.89,706.9 2301.81,538.69 "/>
   <path class="fil1" d="M421.07 381.39l1198.75 449.97 1001.1 -831.35 0 281.38c-324.8,269.32 -649.82,538.58 -973.9,808.76 -410.42,-154.29 -820.87,-308.58 -1231.52,-462.26l0 -248.58 5.57 2.08zm1199.9 459.2l-1197.21 -449.39 0 230.99 1221.68 458.57 967.21 -803.22 0 -259.98 -986.11 818.91 0 6.2 -5.57 -2.09z"/>
   <polygon class="fil0" points="1840.56,1761.16 1657.43,1900.64 1657.43,2128.52 1840.56,1989.04 "/>
  </g>
  <path class="fil1" d="M181.41 2580.47l0.12 46.49 -181.54 0c1.8,-42.52 2.74,-90.46 2.74,-143.79 0,-51.25 -0.94,-95 -2.74,-131.18l171.47 0 -2.31 46.27c-42.24,-2.23 -80.58,-3.39 -114.89,-3.39 1.37,19.61 2.09,42.67 2.09,69.26 29.41,0 60.9,0.43 94.42,-0.33l0 40.3c-32.94,-0.68 -64.44,-0.26 -94.42,-0.26 0,28.54 0.57,55.35 1.73,80.22 38.56,0 79.65,-1.15 123.32,-3.6zm-30.63 -76.36l0 -40.3 177.24 -2.15 -3.17 40.51c-8.87,9.73 -24.69,29.44 -47.5,59.17 -26.16,34.1 -19.95,25.3 -10.96,26.95 31.93,0 63.64,-1.37 94.99,-4.04l-1.01 42.24 -159.65 0c3.36,-45.99 -2.84,-30.04 23.58,-63.27 27.86,-35.05 41.81,-53.44 41.81,-58.49l0 -3.39c-33.2,0.49 -84.08,1.64 -115.33,2.77zm551.31 -152.12l-1.52 45.41c-28.11,-2.09 -54.63,-3.17 -79.57,-3.17 -0.29,26.67 -0.43,56.29 -0.43,88.94 0,50.67 0.79,98.6 2.31,143.79l-59.1 0c1.8,-44.76 2.74,-92.69 2.74,-143.79 0,-32.07 -0.29,-61.77 -0.86,-88.94 -19.82,0 -47.07,1.15 -81.66,3.39l1.65 -45.62 216.45 0zm183.07 274.75l-49.8 1.73c-2.31,-5.98 -3.39,-11.31 -3.39,-16.07l-2.74 0c-15.5,13.19 -36.4,19.82 -62.71,19.82 -17.66,0 -32.22,-4.9 -43.82,-14.63 -11.68,-9.8 -17.44,-22.78 -17.44,-38.99 0,-21.41 9.01,-38.92 27.1,-52.54 18.09,-13.69 49.8,-20.9 95.14,-21.77 0.29,-2.52 0.43,-4.98 0.43,-7.21 0,-15.21 -3.68,-25.23 -10.95,-30.06 -7.36,-4.9 -20.76,-7.28 -40.37,-7.28 -21.26,0 -42.02,2.81 -62.27,8.43l4.61 -38.85c19.17,-6.63 46.2,-9.95 81.09,-9.95 25.51,0 45.19,5.34 59.03,16.07 13.91,10.67 20.83,29.41 20.83,56.15 0,5.91 -0.29,16.65 -0.79,32.29 -0.43,15.64 -0.72,26.09 -0.72,31.28 0,29.12 2.24,52.97 6.78,71.57zm-56.37 -43.9c-0.86,-19.03 -1.3,-35.46 -1.3,-49.23 -48,0 -72,12.18 -72,36.54 0,16.72 10.6,25.08 31.72,25.08 16.58,0 30.41,-4.11 41.59,-12.4zm240.44 -13.55c0,42.24 -31.2,63.36 -93.7,63.36 -22.85,0 -42.74,-2.45 -59.75,-7.35l7.14 -41.66c17.58,6.34 35.1,9.51 52.61,9.51 16.86,0 28.61,-1.37 35.1,-4.18 6.56,-2.81 9.88,-7.57 9.88,-14.2 0,-10.23 -11.82,-20.04 -35.53,-29.33 -20.69,-8.15 -35.75,-16.15 -45.12,-24.08 -12.97,-10.95 -19.46,-24.43 -19.46,-40.29 0,-18.74 6.99,-33.8 20.91,-45.19 13.91,-11.46 34.24,-17.15 60.83,-17.15 24.87,0 44.47,2.24 58.67,6.56l-7.13 41.81c-15.93,-6.2 -33.08,-9.3 -51.53,-9.3 -22.56,0 -33.81,5.76 -33.81,17.37 0,5.91 2.38,10.67 7.21,14.2 4.75,3.6 14.56,8.15 29.33,13.62 20.4,7.49 35.25,15.14 44.54,23.06 13.26,11.25 19.82,25.66 19.82,43.24zm231.73 57.66l-64.65 0c0,-5.19 -10.67,-22.85 -32.07,-52.9 -21.41,-30.05 -35.03,-45.05 -41.01,-45.05l-2.74 0c0,28.83 0.86,61.48 2.59,97.95l-56 0c1.73,-65.73 2.52,-118.06 2.52,-156.91 0,-53.76 -2.16,-100.4 -6.49,-139.97l59.96 -3.39c-2.02,53.48 -2.95,101.27 -2.95,143.36 0,5.34 0.07,15.79 0.21,31.28l2.88 0c3.96,0 15.14,-11.39 33.59,-34.09 18.45,-22.77 27.68,-36.4 27.68,-40.87l62.92 0c0,4.32 -9.59,16.5 -28.69,36.54 -19.17,19.96 -34.67,33.73 -46.49,41.37l0 3.17c13.12,9.15 31.14,29.92 54.2,62.42 22.99,32.43 34.53,51.46 34.53,57.09zm431.23 0l-39.71 0c0,-31.43 -2.16,-76.76 -6.56,-136.22 -4.32,-59.39 -6.7,-94.99 -6.92,-106.82l-2.16 0c-14.06,45.77 -31.93,95.43 -53.48,148.98 -21.62,53.55 -32.43,84.9 -32.43,94.06l-28.54 0c0,-9.87 -10.02,-41.81 -30.2,-95.79 -20.11,-53.99 -32.87,-90.1 -38.2,-108.4 -5.33,-18.31 -9.01,-31.28 -10.95,-38.85l-2.16 0c-0.36,19.24 -3.17,58.17 -8.29,116.76 -5.19,58.52 -7.71,100.62 -7.71,126.28l-36.33 0c0,-1.44 4.75,-40.15 14.35,-116.26 9.59,-76.04 14.34,-128.94 14.34,-158.71l55.57 0c0,15.5 11.25,54.2 33.81,116.19 22.49,61.91 33.73,99.47 33.73,112.51l2.16 0c0,-13.04 12.61,-50.67 37.98,-112.87 25.37,-62.13 37.98,-100.76 37.98,-115.83l54.28 0c0,29.77 3.24,82.38 9.73,157.99 6.49,75.61 9.73,114.6 9.73,116.98zm221.49 0l-33.15 1.29c-1.66,-6.92 -2.52,-13.48 -2.52,-19.67l-2.09 0c-17.37,15.78 -40.94,23.64 -70.78,23.64 -16.22,0 -30.13,-4.76 -41.8,-14.27 -11.68,-9.44 -17.51,-22.99 -17.51,-40.65 0,-21.62 9.15,-39.06 27.46,-52.25 18.31,-13.12 52.26,-20.04 101.99,-20.76 0.43,-3.39 0.65,-7.28 0.65,-11.61 0,-17.37 -4.62,-28.9 -13.84,-34.67 -9.23,-5.77 -23.21,-8.65 -41.95,-8.65 -22.13,0 -43.82,2.74 -65.23,8.22l3.6 -29.12c21.12,-6.05 45.41,-9.08 72.8,-9.08 25.08,0 44.47,5.19 58.09,15.5 13.62,10.38 20.47,28.04 20.47,52.9 0,6.63 -0.29,18.67 -0.94,36.04 -0.65,17.37 -0.93,28.98 -0.93,34.74 0,25.59 1.87,48.44 5.69,68.4zm-37.41 -40.94c-0.65,-21.41 -1.01,-40.65 -1.01,-57.66 -26.45,0 -46.63,1.95 -60.4,5.91 -23.06,7.06 -34.67,20.47 -34.67,40.29 0,19.17 13.55,28.76 40.58,28.76 23.21,0 41.73,-5.77 55.5,-17.3zm269.86 40.94l-38.42 0c3.1,-37.05 4.61,-77.41 4.61,-121.23 0,-21.62 -4.4,-36.47 -13.19,-44.4 -8.79,-8 -21.33,-11.97 -37.7,-11.97 -19.96,0 -38.42,7.28 -55.28,21.77 0,48 0.29,99.97 0.87,155.83l-38.49 0c2.45,-47.86 3.6,-82.53 3.6,-103.86 0,-32.94 -3.1,-64.94 -9.3,-95.93l37.19 -5.26 4.04 25.8 1.66 0c20.83,-18.88 43.17,-28.33 66.96,-28.33 23.35,0 41.44,5.19 54.27,15.5 12.76,10.38 19.17,28.76 19.17,55.28 0,2.67 -0.15,7.93 -0.43,15.79 -0.29,7.93 -0.43,13.19 -0.43,15.86 0,23.49 0.29,58.52 0.86,105.16zm213.92 0l-33.15 1.29c-1.66,-6.92 -2.52,-13.48 -2.52,-19.67l-2.09 0c-17.37,15.78 -40.94,23.64 -70.78,23.64 -16.22,0 -30.13,-4.76 -41.8,-14.27 -11.68,-9.44 -17.52,-22.99 -17.52,-40.65 0,-21.62 9.16,-39.06 27.46,-52.25 18.31,-13.12 52.26,-20.04 101.99,-20.76 0.43,-3.39 0.65,-7.28 0.65,-11.61 0,-17.37 -4.61,-28.9 -13.84,-34.67 -9.23,-5.77 -23.21,-8.65 -41.95,-8.65 -22.13,0 -43.82,2.74 -65.23,8.22l3.6 -29.12c21.12,-6.05 45.41,-9.08 72.8,-9.08 25.08,0 44.47,5.19 58.09,15.5 13.62,10.38 20.47,28.04 20.47,52.9 0,6.63 -0.29,18.67 -0.94,36.04 -0.65,17.37 -0.93,28.98 -0.93,34.74 0,25.59 1.87,48.44 5.69,68.4zm-37.41 -40.94c-0.65,-21.41 -1.01,-40.65 -1.01,-57.66 -26.45,0 -46.63,1.95 -60.4,5.91 -23.06,7.06 -34.67,20.47 -34.67,40.29 0,19.17 13.55,28.76 40.58,28.76 23.21,0 41.73,-5.77 55.5,-17.3zm289.53 -186.25l-3.39 29.12c-26.16,0 -40.65,4.18 -43.32,12.68l0 2.09c9.01,10.95 13.55,23.5 13.55,37.55 0,21.99 -7.21,40.15 -21.69,54.42 -14.42,14.27 -36.69,21.41 -66.82,21.41 -13.33,0 -24,-1.37 -31.86,-4.18 -6.92,4.9 -10.38,11.02 -10.38,18.38 0,9.01 4.11,14.99 12.25,17.94 10.45,3.89 32.15,5.91 65.23,5.91 53.55,0 80.29,17.73 80.29,53.19 0,25.3 -10.45,46.27 -31.28,62.93 -20.83,16.58 -47.79,24.93 -80.87,24.93 -33.95,0 -58.09,-6.2 -72.51,-18.52 -14.41,-12.33 -21.7,-27.1 -21.7,-44.4 0,-15.78 3.6,-28.47 10.67,-38.06 7.14,-9.59 16,-15.5 26.52,-17.73l0 -1.88c-11.1,-5.34 -16.65,-15.64 -16.65,-30.85 0,-13.77 6.99,-25.88 21.11,-36.33l0 -1.65c-7.49,-3.68 -14.63,-9.88 -21.33,-18.6 -6.78,-8.72 -10.16,-19.6 -10.16,-32.5 0,-22.42 7.42,-40.65 22.2,-54.71 14.78,-14.05 36.18,-21.12 64.15,-21.12 22.99,0 41.01,4.18 54.06,12.47l2.37 0c4.47,-23.78 16.29,-35.68 35.46,-35.68 10.38,0 18.45,1.01 24.08,3.17zm-37.84 262.86c0,-13.19 -4.83,-22.56 -14.41,-27.97 -9.66,-5.41 -27.82,-8.15 -54.42,-8.15 -18.02,0 -34.45,-0.86 -49.37,-2.52 -17.23,8.29 -25.8,20.47 -25.8,36.54 0,34.3 22.56,51.53 67.61,51.53 23.5,0 42.09,-4.62 55.86,-13.77 13.69,-9.15 20.54,-21.04 20.54,-35.68zm-29.33 -172.7c0,-15.5 -4.9,-27.39 -14.71,-35.6 -9.73,-8.22 -22.2,-12.33 -37.26,-12.33 -14.2,0 -26.09,3.96 -35.68,11.89 -9.59,7.93 -14.35,19.24 -14.35,33.87 0,15.35 4.9,27.03 14.71,35.1 9.73,8 22.34,12.04 37.7,12.04 14.05,0 25.8,-3.96 35.32,-11.75 9.51,-7.78 14.27,-18.88 14.27,-33.23zm275.11 13.05c0,5.91 -0.29,14.12 -0.86,24.51l-145.02 2.52c1.37,20.54 9.37,37.77 23.85,51.68 14.49,13.84 33.66,20.76 57.66,20.76 21.34,0 41.44,-2.6 60.11,-7.78l-3.53 29.77c-13.84,5.48 -33.73,8.21 -59.75,8.21 -36.61,0 -64.51,-10.02 -83.75,-29.98 -19.24,-19.97 -28.83,-44.33 -28.83,-73.09 0,-30.64 8.8,-57.09 26.31,-79.29 17.51,-22.13 41.08,-33.23 70.63,-33.23 27.17,0 47.79,8 61.98,24.08 14.13,16 21.19,36.68 21.19,61.84zm-35.25 0.43c0,-39.57 -16.58,-59.32 -49.66,-59.32 -33.73,0 -53.7,20.54 -59.75,61.63l109.41 -2.31zm211.55 -77.05l-9.51 33.59c-10.96,-4.4 -21.19,-6.56 -30.56,-6.56 -26.52,0 -43.68,12.61 -51.53,37.76 0,64.8 0.43,110.06 1.22,135.79l-37.34 0c2.23,-44.62 3.39,-79.29 3.39,-103.86 0,-33.37 -3.32,-65.37 -9.95,-95.93l36.97 -5.26c2.67,15.5 3.96,25.88 3.96,31.07l1.73 0c15.2,-22.41 32.94,-33.59 53.19,-33.59 10.74,0 23.49,2.31 38.42,6.99z"/>
 </g>
</svg>
