<?xml version="1.0" encoding="UTF-8"?>
<!DOCTYPE svg PUBLIC "-//W3C//DTD SVG 1.1//EN" "http://www.w3.org/Graphics/SVG/1.1/DTD/svg11.dtd">
<!-- Creator: CorelDRAW -->
<svg xmlns="http://www.w3.org/2000/svg" xml:space="preserve" width="298.125mm" height="49.0238mm" version="1.1" style="shape-rendering:geometricPrecision; text-rendering:geometricPrecision; image-rendering:optimizeQuality; fill-rule:evenodd; clip-rule:evenodd"
viewBox="0 0 12610.38 2073.65"
 xmlns:xlink="http://www.w3.org/1999/xlink"
 xmlns:xodm="http://www.corel.com/coreldraw/odm/2003">
 <defs>
  <style type="text/css">
   <![CDATA[
    .fil0 {fill:black}
    .fil1 {fill:black;fill-rule:nonzero}
   ]]>
  </style>
 </defs>
 <g id="Camada_x0020_1">
  <metadata id="CorelCorpID_0Corel-Layer"/>
  <g id="_2569684621712">
   <polygon class="fil0" points="4.03,945 998.88,1299.88 998.88,1521.88 4.03,1167 "/>
   <polygon class="fil0" points="4.03,1420.05 1213.95,1851.65 1213.95,2073.65 4.03,1642.06 "/>
   <polygon class="fil0" points="1871.49,1564.24 1674.21,1729.86 1640.98,688.68 1837.69,524.81 "/>
   <path class="fil1" d="M5.43 371.56l1167.85 438.37 975.3 -809.93 0 274.13c-316.43,262.38 -633.08,524.7 -948.79,787.92 -399.84,-150.31 -799.72,-300.63 -1199.78,-450.35l0 -242.17 5.43 2.03zm1168.98 447.36l-1166.35 -437.81 0 225.04 1190.19 446.75 942.28 -782.51 0 -253.28 -960.7 797.8 0 6.04 -5.42 -2.03z"/>
   <polygon class="fil0" points="1388.33,1715.77 1209.92,1851.65 1209.92,2073.65 1388.33,1937.77 "/>
  </g>
  <path class="fil1" d="M3406.23 1319.01l0.39 149.87 -585.25 0c5.81,-137.1 8.83,-291.62 8.83,-463.57 0,-165.21 -3.02,-306.25 -8.83,-422.9l552.8 0 -7.44 149.18c-136.17,-7.2 -259.78,-10.92 -370.39,-10.92 4.42,63.2 6.74,137.56 6.74,223.3 94.8,0 196.34,1.37 304.4,-1.09l0 129.94c-106.19,-2.18 -207.73,-0.82 -304.4,-0.82 0,92.02 1.86,178.45 5.57,258.62 124.32,0 256.76,-3.71 397.58,-11.62zm-98.76 -246.18l0 -129.94 571.39 -6.92 -10.23 130.59c-28.58,31.36 -79.59,94.9 -153.13,190.77 -84.34,109.94 -64.31,81.57 -35.34,86.87 102.93,0 205.18,-4.42 306.25,-13.02l-3.25 136.16 -514.68 0c10.85,-148.26 -9.15,-96.85 76.01,-203.98 89.81,-113 134.77,-172.3 134.77,-188.56l0 -10.92c-107.02,1.57 -271.08,5.3 -371.79,8.95zm1777.35 -490.41l-4.88 146.39c-90.62,-6.74 -176.13,-10.23 -256.53,-10.23 -0.93,85.98 -1.39,181.48 -1.39,286.74 0,163.35 2.55,317.87 7.43,463.57l-190.54 0c5.81,-144.3 8.83,-298.82 8.83,-463.57 0,-103.4 -0.93,-199.13 -2.79,-286.74 -63.9,0 -151.73,3.72 -263.26,10.92l5.34 -147.09 697.79 0zm590.2 885.77l-160.57 5.58c-7.44,-19.29 -10.92,-36.48 -10.92,-51.82l-8.83 0c-49.96,42.52 -117.34,63.9 -202.15,63.9 -56.93,0 -103.86,-15.8 -141.28,-47.17 -37.64,-31.6 -56.23,-73.43 -56.23,-125.71 0,-69.01 29.04,-125.48 87.36,-169.39 58.32,-44.15 160.56,-67.39 306.72,-70.17 0.93,-8.13 1.4,-16.04 1.4,-23.23 0,-49.03 -11.85,-81.33 -35.32,-96.89 -23.7,-15.8 -66.92,-23.47 -130.12,-23.47 -68.55,0 -135.47,9.06 -200.76,27.19l14.87 -125.24c61.81,-21.37 148.94,-32.07 261.41,-32.07 82.25,0 145.69,17.2 190.31,51.82 44.85,34.38 67.15,94.8 67.15,181.01 0,19.06 -0.93,53.68 -2.55,104.1 -1.4,50.42 -2.33,84.12 -2.33,100.84 0,93.88 7.2,170.79 21.84,230.74zm-181.71 -141.51c-2.78,-61.34 -4.18,-114.32 -4.18,-158.7 -154.75,0 -232.13,39.27 -232.13,117.81 0,53.91 34.16,80.86 102.24,80.86 53.44,0 98.06,-13.25 134.07,-39.97zm775.17 -43.68c0,136.16 -100.61,204.24 -302.07,204.24 -73.66,0 -137.79,-7.9 -192.63,-23.7l23.01 -134.31c56.7,20.45 113.16,30.67 169.63,30.67 54.37,0 92.25,-4.41 113.16,-13.47 21.15,-9.06 31.84,-24.4 31.84,-45.78 0,-32.99 -38.11,-64.6 -114.56,-94.57 -66.69,-26.26 -115.25,-52.05 -145.46,-77.61 -41.82,-35.32 -62.74,-78.77 -62.74,-129.89 0,-60.42 22.54,-108.97 67.39,-145.69 44.85,-36.94 110.37,-55.3 196.11,-55.3 80.16,0 143.37,7.2 189.14,21.14l-23 134.77c-51.35,-19.98 -106.66,-29.97 -166.14,-29.97 -72.73,0 -108.98,18.59 -108.98,56 0,19.05 7.67,34.38 23.24,45.77 15.33,11.62 46.93,26.26 94.57,43.92 65.76,24.17 113.62,48.8 143.6,74.36 42.76,36.25 63.9,82.72 63.9,139.42zm747.05 185.89l-208.43 0c0,-16.73 -34.39,-73.66 -103.4,-170.55 -69.01,-96.9 -112.93,-145.23 -132.22,-145.23l-8.83 0c0,92.94 2.79,198.2 8.36,315.78l-180.54 0c5.57,-211.92 8.13,-380.61 8.13,-505.86 0,-173.34 -6.97,-323.68 -20.91,-451.25l193.32 -10.92c-6.51,172.41 -9.53,326.47 -9.53,462.17 0,17.19 0.23,50.89 0.7,100.85l9.29 0c12.78,0 48.8,-36.72 108.28,-109.91 59.49,-73.42 89.23,-117.34 89.23,-131.75l202.85 0c0,13.94 -30.9,53.21 -92.48,117.81 -61.81,64.36 -111.77,108.75 -149.87,133.38l0 10.22c42.29,29.51 100.38,96.44 174.74,201.23 74.12,104.56 111.31,165.9 111.31,184.03zm1390.23 0l-128.03 0c0,-101.31 -6.97,-247.47 -21.15,-439.17 -13.94,-191.47 -21.61,-306.25 -22.31,-344.36l-6.97 0c-45.31,147.55 -102.94,307.65 -172.41,480.29 -69.71,172.65 -104.56,273.72 -104.56,303.24l-92.01 0c0,-31.83 -32.3,-134.77 -97.36,-308.81 -64.84,-174.04 -105.96,-290.45 -123.16,-349.47 -17.19,-59.02 -29.04,-100.84 -35.32,-125.24l-6.97 0c-1.17,62.04 -10.23,187.52 -26.72,376.43 -16.73,188.68 -24.86,324.38 -24.86,407.1l-117.11 0c0,-4.64 15.34,-129.43 46.24,-374.8 30.91,-245.14 46.25,-415.7 46.25,-511.66l179.15 0c0,49.96 36.25,174.74 108.98,374.57 72.5,199.6 108.75,320.66 108.75,362.72l6.97 0c0,-42.06 40.66,-163.35 122.45,-363.88 81.79,-200.3 122.46,-324.84 122.46,-373.41l174.97 0c0,95.96 10.46,265.59 31.37,509.34 20.91,243.75 31.36,369.45 31.36,377.12zm714.06 0l-106.89 4.18c-5.34,-22.3 -8.13,-43.45 -8.13,-63.43l-6.74 0c-56,50.89 -131.98,76.21 -228.18,76.21 -52.29,0 -97.13,-15.34 -134.77,-46.01 -37.65,-30.44 -56.47,-74.12 -56.47,-131.05 0,-69.71 29.51,-125.95 88.53,-168.46 59.02,-42.29 168.46,-64.6 328.8,-66.92 1.39,-10.92 2.09,-23.47 2.09,-37.41 0,-56 -14.87,-93.17 -44.61,-111.76 -29.75,-18.59 -74.82,-27.88 -135.24,-27.88 -71.33,0 -141.28,8.83 -210.28,26.49l11.62 -93.87c68.08,-19.52 146.39,-29.28 234.69,-29.28 80.86,0 143.37,16.73 187.28,49.96 43.92,33.46 65.99,90.39 65.99,170.55 0,21.38 -0.93,60.18 -3.02,116.18 -2.09,56 -3.02,93.41 -3.02,112 0,82.49 6.04,156.15 18.36,220.51zm-120.6 -131.98c-2.09,-69.01 -3.25,-131.05 -3.25,-185.89 -85.28,0 -150.34,6.27 -194.72,19.05 -74.36,22.77 -111.77,65.99 -111.77,129.89 0,61.81 43.68,92.71 130.82,92.71 74.83,0 134.54,-18.59 178.92,-55.77zm869.97 131.98l-123.85 0c9.99,-119.44 14.87,-249.56 14.87,-390.84 0,-69.71 -14.18,-117.57 -42.52,-143.13 -28.35,-25.8 -68.78,-38.57 -121.52,-38.57 -64.37,0 -123.86,23.47 -178.23,70.17 0,154.75 0.93,322.29 2.79,502.37l-124.08 0c7.9,-154.29 11.62,-266.06 11.62,-334.84 0,-106.19 -9.99,-209.35 -29.97,-309.27l119.9 -16.97 13.02 83.19 5.34 0c67.15,-60.88 139.18,-91.32 215.86,-91.32 75.29,0 133.61,16.73 174.97,49.96 41.13,33.46 61.81,92.71 61.81,178.22 0,8.6 -0.47,25.56 -1.39,50.89 -0.93,25.56 -1.4,42.52 -1.4,51.12 0,75.75 0.93,188.68 2.79,339.02zm689.65 0l-106.89 4.18c-5.34,-22.3 -8.13,-43.45 -8.13,-63.43l-6.74 0c-56,50.89 -131.99,76.21 -228.18,76.21 -52.29,0 -97.13,-15.34 -134.77,-46.01 -37.65,-30.44 -56.47,-74.12 -56.47,-131.05 0,-69.71 29.51,-125.95 88.53,-168.46 59.02,-42.29 168.46,-64.6 328.79,-66.92 1.4,-10.92 2.09,-23.47 2.09,-37.41 0,-56 -14.87,-93.17 -44.61,-111.76 -29.75,-18.59 -74.83,-27.88 -135.24,-27.88 -71.33,0 -141.28,8.83 -210.28,26.49l11.62 -93.87c68.08,-19.52 146.39,-29.28 234.69,-29.28 80.86,0 143.37,16.73 187.28,49.96 43.92,33.46 65.99,90.39 65.99,170.55 0,21.38 -0.93,60.18 -3.02,116.18 -2.09,56 -3.02,93.41 -3.02,112 0,82.49 6.04,156.15 18.35,220.51zm-120.59 -131.98c-2.09,-69.01 -3.25,-131.05 -3.25,-185.89 -85.28,0 -150.33,6.27 -194.72,19.05 -74.36,22.77 -111.77,65.99 -111.77,129.89 0,61.81 43.68,92.71 130.82,92.71 74.82,0 134.54,-18.59 178.92,-55.77zm933.4 -600.43l-10.92 93.87c-84.35,0 -131.05,13.48 -139.65,40.9l0 6.73c29.05,35.32 43.69,75.75 43.69,121.06 0,70.87 -23.24,129.43 -69.94,175.43 -46.47,46 -118.27,69.01 -215.4,69.01 -42.99,0 -77.37,-4.42 -102.71,-13.48 -22.3,15.8 -33.45,35.55 -33.45,59.26 0,29.04 13.24,48.33 39.5,57.86 33.7,12.55 103.63,19.05 210.29,19.05 172.64,0 258.85,57.16 258.85,171.48 0,81.56 -33.69,149.18 -100.84,202.86 -67.15,53.44 -154.06,80.39 -260.71,80.39 -109.44,0 -187.29,-19.98 -233.76,-59.72 -46.47,-39.74 -69.94,-87.36 -69.94,-143.14 0,-50.89 11.62,-91.78 34.39,-122.68 23.01,-30.91 51.59,-49.96 85.51,-57.16l0 -6.04c-35.78,-17.2 -53.67,-50.42 -53.67,-99.46 0,-44.38 22.54,-83.41 68.08,-117.1l0 -5.35c-24.16,-11.85 -47.17,-31.83 -68.78,-59.95 -21.84,-28.11 -32.76,-63.2 -32.76,-104.8 0,-72.26 23.93,-131.05 71.57,-176.36 47.63,-45.31 116.65,-68.08 206.8,-68.08 74.12,0 132.21,13.48 174.27,40.2l7.67 0c14.41,-76.68 52.51,-115.02 114.33,-115.02 33.45,0 59.48,3.25 77.61,10.22zm-121.99 847.43c0,-42.52 -15.57,-72.73 -46.47,-90.16 -31.14,-17.42 -89.69,-26.25 -175.43,-26.25 -58.09,0 -111.07,-2.78 -159.17,-8.13 -55.53,26.72 -83.19,65.99 -83.19,117.81 0,110.6 72.73,166.14 217.96,166.14 75.75,0 135.7,-14.87 180.08,-44.38 44.15,-29.5 66.22,-67.85 66.22,-115.01zm-94.57 -556.74c0,-49.96 -15.8,-88.29 -47.4,-114.79 -31.37,-26.49 -71.57,-39.73 -120.13,-39.73 -45.78,0 -84.12,12.77 -115.02,38.34 -30.91,25.56 -46.24,62.04 -46.24,109.21 0,49.49 15.8,87.14 47.4,113.16 31.37,25.79 72.04,38.81 121.53,38.81 45.31,0 83.19,-12.78 113.86,-37.87 30.67,-25.1 46.01,-60.88 46.01,-107.12zm886.92 42.06c0,19.06 -0.93,45.54 -2.78,79l-467.52 8.14c4.42,66.22 30.21,121.75 76.91,166.6 46.71,44.61 108.51,66.92 185.89,66.92 68.79,0 133.61,-8.36 193.8,-25.1l-11.39 95.97c-44.62,17.66 -108.75,26.48 -192.63,26.48 -118.04,0 -207.97,-32.3 -270.01,-96.66 -62.04,-64.37 -92.95,-142.91 -92.95,-235.62 0,-98.76 28.35,-184.03 84.81,-255.6 56.46,-71.34 132.45,-107.12 227.72,-107.12 87.6,0 154.05,25.79 199.83,77.61 45.54,51.58 68.31,118.27 68.31,199.37zm-113.62 1.4c0,-127.57 -53.44,-191.24 -160.1,-191.24 -108.74,0 -173.11,66.22 -192.63,198.67l352.73 -7.43zm681.99 -248.4l-30.67 108.28c-35.32,-14.17 -68.32,-21.15 -98.53,-21.15 -85.51,0 -140.81,40.66 -166.14,121.76 0,208.89 1.4,354.82 3.95,437.77l-120.36 0c7.2,-143.83 10.92,-255.6 10.92,-334.84 0,-107.58 -10.69,-210.75 -32.07,-309.27l119.2 -16.97c8.6,49.96 12.78,83.42 12.78,100.15l5.57 0c49.03,-72.26 106.19,-108.28 171.48,-108.28 34.62,0 75.75,7.44 123.85,22.54z"/>
 </g>
</svg>
